<?xml version="1.0" encoding="UTF-8"?>
<svg width="150px" height="150px" viewBox="0 0 150 150" version="1.1" xmlns="http://www.w3.org/2000/svg" xmlns:xlink="http://www.w3.org/1999/xlink">
    <!-- Generator: Sketch 62 (91390) - https://sketch.com -->
    <title>star/USA</title>
    <desc>Created with Sketch.</desc>
    <defs>
        <circle id="path-1" cx="65" cy="65" r="65"></circle>
    </defs>
    <g id="star/USA" stroke="none" stroke-width="1" fill="none" fill-rule="evenodd">
        <g id="USA" transform="translate(10.000000, 10.000000)">
            <mask id="mask-2" fill="white">
                <use xlink:href="#path-1"></use>
            </mask>
            <use id="BG-Circle" fill="#FFFFFF" xlink:href="#path-1"></use>
            <g id="Circles" mask="url(#mask-2)">
                <g transform="translate(-2.600000, 0.000000)">
                    <path d="M67.6,8.66666667 C98.7120409,8.66666667 123.933333,33.8879591 123.933333,65 C123.933333,96.1120409 98.7120409,121.333333 67.6,121.333333 C36.4879591,121.333333 11.2666667,96.1120409 11.2666667,65 C11.2666667,33.8879591 36.4879591,8.66666667 67.6,8.66666667 Z M67.6,13 C38.881193,13 15.6,36.281193 15.6,65 C15.6,93.718807 38.881193,117 67.6,117 C96.318807,117 119.6,93.718807 119.6,65 C119.6,36.281193 96.318807,13 67.6,13 Z" id="Inner-Circle" fill="#FC4C02" fill-rule="nonzero"></path>
                    <polygon id="#FFFFFF" fill="#FFFFFF" fill-rule="evenodd" points="0.739618052 84.2750126 134.702786 84.2750126 134.702786 48.3336749 0.739618052 48.3336749"></polygon>
                    <path d="M67.6,0 C103.498509,0 132.6,29.1014913 132.6,65 C132.6,100.898509 103.498509,130 67.6,130 C31.7014913,130 2.6,100.898509 2.6,65 C2.6,29.1014913 31.7014913,0 67.6,0 Z M67.6,4.33333333 C34.0947252,4.33333333 6.93333333,31.4947252 6.93333333,65 C6.93333333,98.5052748 34.0947252,125.666667 67.6,125.666667 C101.105275,125.666667 128.266667,98.5052748 128.266667,65 C128.266667,31.4947252 101.105275,4.33333333 67.6,4.33333333 Z" id="Outer-Circle" fill="#FC4C02" fill-rule="nonzero"></path>
                </g>
            </g>
            <path d="M24.9237489,60.2151089 L26.0070359,64.2989434 L30.1217262,63.1854673 L27.0900229,66.1558258 L30.1217262,69.1261843 L26.0070359,68.0127083 L24.9237489,72.0965428 L23.8404619,68.0127083 L19.7254715,69.1261843 L22.7571748,66.1558258 L19.7254715,63.1854673 L23.8404619,64.2989434 L24.9237489,60.2151089 Z M11.5568356,60.2151089 L12.6401227,64.2989434 L16.755113,63.1854673 L13.7234097,66.1558258 L16.755113,69.1261843 L12.6401227,68.0127083 L11.5568356,72.0965428 L10.4735486,68.0127083 L6.3588583,69.1261843 L9.39026154,66.1558258 L6.3588583,63.1854673 L10.4735486,64.2989434 L11.5568356,60.2151089 Z M105.615841,60.2151089 L106.698859,64.2989434 L110.813968,63.1854673 L107.782478,66.1558258 L110.813968,69.1261843 L106.698859,68.0127083 L105.615841,72.0965428 L104.532523,68.0127083 L100.417714,69.1261843 L103.449204,66.1558258 L100.417714,63.1854673 L104.532523,64.2989434 L105.615841,60.2151089 Z M118.982604,60.2151089 L120.065591,64.2989434 L124.180582,63.1854673 L121.148878,66.1558258 L124.180582,69.1261843 L120.065591,68.0127083 L118.982604,72.0965428 L117.899317,68.0127083 L113.784327,69.1261843 L116.81603,66.1558258 L113.784327,63.1854673 L117.899317,64.2989434 L118.982604,60.2151089 Z" id="stars" fill="#7BA4DB" mask="url(#mask-2)"></path>
            <path d="M69.5651163,38.1333333 C74.7348837,38.1333333 77.0829457,41.2105855 77.0829457,46.4965972 C77.0829457,47.7403646 76.9418605,49.2843518 76.8108527,50.8926717 L76.2565891,56.3180711 L69.7565891,56.3180711 L70.3813953,50.0134568 C70.5224806,48.4694697 70.5930233,47.7403646 70.5930233,47.0112596 C70.5930233,45.5423273 70.1093023,44.7381673 69.0813953,44.7381673 C67.6302326,44.7381673 67.0155039,46.0569897 66.7333333,48.9197993 L66.6627907,49.5845715 C66.5721014,50.4856349 66.5250109,51.391063 66.5217054,52.2972712 C66.5217054,55.6747431 67.5294574,58.4624977 69.9682171,63.3732347 C72.5178295,68.6592463 74.2410853,71.9509412 74.2410853,76.2397944 C74.2328764,77.3441205 74.162206,78.4469199 74.0294574,79.5422114 L73.827907,81.4293069 C73.072093,87.8625867 70.451938,91.4008907 64.9294574,91.4008907 C59.4069767,91.4008907 56.655814,88.1842507 56.655814,83.1126818 C56.6699173,81.7891593 56.7607877,80.4678247 56.927907,79.1562146 L57.5527132,73.7951481 L64.1736434,73.7951481 L63.4883721,80.0997624 C63.40258,80.9044122 63.3554902,81.7132008 63.3472868,82.5229644 C63.3472868,83.9918967 63.972093,84.7960567 65.0705426,84.7960567 C66.5217054,84.7960567 66.9348837,83.6273442 67.2069767,81.0540322 L67.348062,79.6601549 C67.4294745,79.0273827 67.4765809,78.3901486 67.4891473,77.7516152 C67.4891473,74.2990883 66.4813953,72.7658233 63.7,67.0294821 C61.2209302,61.9686353 59.9108527,57.4975057 59.9108527,53.090709 C59.9094767,52.1843604 59.9565813,51.2786628 60.051938,50.3780094 L60.1930233,49.059187 C60.9488372,41.650193 64.224031,38.1333333 69.5651163,38.1333333 Z M46.3263566,38.5836629 L42.2953488,80.5393698 C42.2163036,81.197548 42.1692126,81.8596255 42.1542636,82.5229644 C42.1542636,84.2063393 42.7085271,84.7960567 43.948062,84.7960567 C45.1875969,84.7960567 45.8124031,83.9168418 46.0844961,81.3542519 L50.1155039,38.5943851 L56.7968992,38.5836629 L52.7658915,81.1290871 C52.0100775,88.7525238 49.2488372,91.4008907 43.8069767,91.4008907 C38.3651163,91.4008907 35.5333333,88.5380811 35.5333333,82.6730743 C35.5333333,81.9439693 35.603876,81.2041421 35.6744186,80.3999821 L39.7054264,38.5836629 L46.3263566,38.5836629 Z M95.1317829,38.5836629 L94.648062,90.9612832 L87.5937984,90.9612832 L88.0271318,80.6144248 L83.996124,80.6144248 L82.4139535,90.9612832 L75.5511628,90.9612832 L85.4775194,38.5836629 L95.1317829,38.5836629 Z M89.6496124,42.6259071 L86.2333333,65.5819941 L84.9232558,74.0953678 L88.2992248,74.0953678 L88.6418605,65.5819941 C88.8534884,61.625527 89.3976744,48.9305214 89.6496124,42.6259071 Z" id="Shape" fill="#FC4C02" fill-rule="nonzero" mask="url(#mask-2)"></path>
        </g>
    </g>
</svg>