<?xml version="1.0" encoding="UTF-8"?>
<svg width="150px" height="150px" viewBox="0 0 150 150" version="1.1" xmlns="http://www.w3.org/2000/svg" xmlns:xlink="http://www.w3.org/1999/xlink">
    <!-- Generator: Sketch 62 (91390) - https://sketch.com -->
    <title>star/World</title>
    <desc>Created with Sketch.</desc>
    <defs>
        <circle id="path-1" cx="65" cy="65" r="65"></circle>
    </defs>
    <g id="star/World" stroke="none" stroke-width="1" fill="none" fill-rule="evenodd">
        <g id="WLD" transform="translate(10.000000, 10.000000)">
            <mask id="mask-2" fill="white">
                <use xlink:href="#path-1"></use>
            </mask>
            <use id="BG-Circle" fill="#FFFFFF" xlink:href="#path-1"></use>
            <g id="Circles" mask="url(#mask-2)">
                <g transform="translate(-2.600000, 0.000000)">
                    <path d="M67.6,8.66666667 C98.7120409,8.66666667 123.933333,33.8879591 123.933333,65 C123.933333,96.1120409 98.7120409,121.333333 67.6,121.333333 C36.4879591,121.333333 11.2666667,96.1120409 11.2666667,65 C11.2666667,33.8879591 36.4879591,8.66666667 67.6,8.66666667 Z M67.6,13 C38.881193,13 15.6,36.281193 15.6,65 C15.6,93.718807 38.881193,117 67.6,117 C96.318807,117 119.6,93.718807 119.6,65 C119.6,36.281193 96.318807,13 67.6,13 Z" id="Inner-Circle" fill="#330072" fill-rule="nonzero"></path>
                    <polygon id="#FFFFFF" fill="#FFFFFF" fill-rule="evenodd" points="0.739618052 84.2750126 134.702786 84.2750126 134.702786 48.3336749 0.739618052 48.3336749"></polygon>
                    <path d="M67.6,0 C103.498509,0 132.6,29.1014913 132.6,65 C132.6,100.898509 103.498509,130 67.6,130 C31.7014913,130 2.6,100.898509 2.6,65 C2.6,29.1014913 31.7014913,0 67.6,0 Z M67.6,4.33333333 C34.0947252,4.33333333 6.93333333,31.4947252 6.93333333,65 C6.93333333,98.5052748 34.0947252,125.666667 67.6,125.666667 C101.105275,125.666667 128.266667,98.5052748 128.266667,65 C128.266667,31.4947252 101.105275,4.33333333 67.6,4.33333333 Z" id="Outer-Circle" fill="#330072" fill-rule="nonzero"></path>
                </g>
            </g>
            <path d="M24.9237489,60.2151089 L26.0070359,64.2989434 L30.1217262,63.1854673 L27.0900229,66.1558258 L30.1217262,69.1261843 L26.0070359,68.0127083 L24.9237489,72.0965428 L23.8404619,68.0127083 L19.7254715,69.1261843 L22.7571748,66.1558258 L19.7254715,63.1854673 L23.8404619,64.2989434 L24.9237489,60.2151089 Z M11.5568356,60.2151089 L12.6401227,64.2989434 L16.755113,63.1854673 L13.7234097,66.1558258 L16.755113,69.1261843 L12.6401227,68.0127083 L11.5568356,72.0965428 L10.4735486,68.0127083 L6.3588583,69.1261843 L9.39026154,66.1558258 L6.3588583,63.1854673 L10.4735486,64.2989434 L11.5568356,60.2151089 Z M105.615841,60.2151089 L106.698859,64.2989434 L110.813968,63.1854673 L107.782478,66.1558258 L110.813968,69.1261843 L106.698859,68.0127083 L105.615841,72.0965428 L104.532523,68.0127083 L100.417714,69.1261843 L103.449204,66.1558258 L100.417714,63.1854673 L104.532523,64.2989434 L105.615841,60.2151089 Z M118.982604,60.2151089 L120.065591,64.2989434 L124.180582,63.1854673 L121.148878,66.1558258 L124.180582,69.1261843 L120.065591,68.0127083 L118.982604,72.0965428 L117.899317,68.0127083 L113.784327,69.1261843 L116.81603,66.1558258 L113.784327,63.1854673 L117.899317,64.2989434 L118.982604,60.2151089 Z" id="stars" fill="#7BA4DB" mask="url(#mask-2)"></path>
            <path d="M89.4062027,38.6479229 C97.1597335,38.6479229 99.9434901,43.1822014 99.1408118,50.9442713 L96.2204291,79.3710378 C95.366516,87.8589338 90.798081,90.9330209 83.7789155,90.9330209 L76.8195239,90.9074035 L82.378498,38.6479229 L89.4062027,38.6479229 Z M72.8744455,38.6479229 L68.0412974,84.3237336 L73.822289,84.3237336 L73.1647759,90.9074035 L60.3560797,90.9074035 L65.8467408,38.6479229 L72.8744455,38.6479229 Z M41.8652642,38.1333333 L39.6963249,67.4823259 C39.5511597,69.5317173 39.4059945,71.6494218 39.1839771,73.7073523 C39.6280119,71.6579609 39.9866554,69.5402565 40.353838,67.4823259 L45.8444991,38.1333333 L51.9158211,38.1333333 L51.3266211,67.4823259 L51.1046037,73.4597175 L51.907282,67.4823259 L55.9206735,38.1333333 L63.0252303,38.1333333 L53.2052299,90.3928139 L45.5200121,90.3928139 L46.3739252,63.306691 L46.5959426,58.1148994 L45.6737165,63.306691 L40.550238,90.3928139 L32.9333333,90.3928139 L34.6923943,38.1333333 L41.8652642,38.1333333 Z M89.6794549,45.2145145 L88.6803766,45.2145145 L84.5815938,84.2981163 L85.4355069,84.2981163 C88.0740983,84.2981163 88.7999244,82.5390553 89.167107,79.0294725 L92.0960289,50.8503409 C92.4632115,47.4859233 92.2411941,45.2145145 89.6794549,45.2145145 Z" fill="#330072" fill-rule="nonzero" mask="url(#mask-2)"></path>
        </g>
    </g>
</svg>