<?xml version="1.0" encoding="UTF-8"?>
<svg width="150px" height="150px" viewBox="0 0 150 150" version="1.1" xmlns="http://www.w3.org/2000/svg" xmlns:xlink="http://www.w3.org/1999/xlink">
    <!-- Generator: Sketch 62 (91390) - https://sketch.com -->
    <title>star/GNS</title>
    <desc>Created with Sketch.</desc>
    <defs>
        <circle id="path-1" cx="70" cy="70" r="70"></circle>
    </defs>
    <g id="star/GNS" stroke="none" stroke-width="1" fill="none" fill-rule="evenodd">
        <rect id="Rectangle" x="0" y="0" width="150" height="150"></rect>
        <g id="GNS" transform="translate(5.000000, 5.000000)">
            <mask id="mask-2" fill="white">
                <use xlink:href="#path-1"></use>
            </mask>
            <use id="BG-Circle" fill="#FFFFFF" xlink:href="#path-1"></use>
            <g id="Circles" mask="url(#mask-2)">
                <g transform="translate(-2.800000, 0.000000)">
                    <path d="M72.8,9.33333333 C106.305275,9.33333333 133.466667,36.4947252 133.466667,70 C133.466667,103.505275 106.305275,130.666667 72.8,130.666667 C39.2947252,130.666667 12.1333333,103.505275 12.1333333,70 C12.1333333,36.4947252 39.2947252,9.33333333 72.8,9.33333333 Z M72.8,14 C41.872054,14 16.8,39.072054 16.8,70 C16.8,100.927946 41.872054,126 72.8,126 C103.727946,126 128.8,100.927946 128.8,70 C128.8,39.072054 103.727946,14 72.8,14 Z" id="Inner-Circle" fill="#C8102E" fill-rule="nonzero"></path>
                    <polygon id="#FFFFFF" fill="#FFFFFF" fill-rule="evenodd" points="0.796511748 90.7577059 145.064539 90.7577059 145.064539 52.0516499 0.796511748 52.0516499"></polygon>
                    <path d="M72.8,0 C111.459932,0 142.8,31.3400675 142.8,70 C142.8,108.659932 111.459932,140 72.8,140 C34.1400675,140 2.8,108.659932 2.8,70 C2.8,31.3400675 34.1400675,0 72.8,0 Z M72.8,4.66666667 C36.7173963,4.66666667 7.46666667,33.9173963 7.46666667,70 C7.46666667,106.082604 36.7173963,135.333333 72.8,135.333333 C108.882604,135.333333 138.133333,106.082604 138.133333,70 C138.133333,33.9173963 108.882604,4.66666667 72.8,4.66666667 Z" id="Outer-Circle" fill="#C8102E" fill-rule="nonzero"></path>
                </g>
            </g>
            <path d="M26.8409604,64.8470403 L28.0075772,69.245016 L32.4387821,68.0458879 L29.1738708,71.2447355 L32.4387821,74.4435831 L28.0075772,73.2444551 L26.8409604,77.6424307 L25.6743435,73.2444551 L21.2428155,74.4435831 L24.5077267,71.2447355 L21.2428155,68.0458879 L25.6743435,69.245016 L26.8409604,64.8470403 Z M12.445823,64.8470403 L13.6124398,69.245016 L18.0439679,68.0458879 L14.7790566,71.2447355 L18.0439679,74.4435831 L13.6124398,73.2444551 L12.445823,77.6424307 L11.2792062,73.2444551 L6.84800125,74.4435831 L10.1125893,71.2447355 L6.84800125,68.0458879 L11.2792062,69.245016 L12.445823,64.8470403 Z M113.740136,64.8470403 L114.906464,69.245016 L119.33812,68.0458879 L116.073437,71.2447355 L119.33812,74.4435831 L114.906464,73.2444551 L113.740136,77.6424307 L112.573486,73.2444551 L108.142153,74.4435831 L111.406835,71.2447355 L108.142153,68.0458879 L112.573486,69.245016 L113.740136,64.8470403 Z M128.135112,64.8470403 L129.301406,69.245016 L133.732934,68.0458879 L130.468023,71.2447355 L133.732934,74.4435831 L129.301406,73.2444551 L128.135112,77.6424307 L126.968495,73.2444551 L122.536967,74.4435831 L125.801879,71.2447355 L122.536967,68.0458879 L126.968495,69.245016 L128.135112,64.8470403 Z" id="stars" fill="#69B3E7" mask="url(#mask-2)"></path>
            <path d="M41.1133333,98.476 C44.0486667,98.476 46.3493333,96.8893333 47.698,94.43 L48.8086667,98 L52.7753333,98 L55.9486667,68.4086667 L46.27,68.4086667 L45.4766667,75.628 L47.5393333,75.628 L45.9526667,90.7806667 C45.4766667,91.098 44.9213333,91.336 44.2866667,91.336 C42.6206667,91.336 41.9066667,90.2253333 41.9066667,88.4006667 C41.9066667,87.6866667 41.986,86.6553333 42.0653333,85.9413333 L45.7146667,51.6693333 C46.032,48.8926667 46.5873333,48.02 48.0946667,48.02 C49.4433333,48.02 50.078,48.5753333 50.078,50.4793333 C50.078,50.876 50.078,51.2726667 49.9986667,51.828 L48.65,65.0766667 L56.3453333,65.0766667 L57.6146667,52.78 C57.694,51.9073333 57.7733333,51.0346667 57.7733333,50.2413333 C57.7733333,43.8946667 54.6793333,40.88 48.412,40.88 C42.462,40.88 38.9713333,43.6566667 38.0986667,51.9866667 L34.5286667,84.7513333 C34.37,86.0206667 34.2113333,88.004 34.2113333,89.67 C34.2113333,95.3026667 36.9086667,98.476 41.1133333,98.476 Z M68.3246667,53.1001333 L69.9113333,98 L79.352,98 L85.302,41.356 L78.638,41.356 L77.7653333,49.6066667 C76.734,58.8093333 76.258,76.2626667 76.0993333,87.4486667 L74.116,41.356 L63.8026667,41.356 L57.8526667,98 L64.5166667,98 L66.262,81.7366667 C66.9604783,75.1399275 67.7348781,63.6842092 68.2881151,53.7568247 L68.3246667,53.1001333 Z M94.346,98.476 C100.692667,98.476 103.707333,94.668 104.58,87.6866667 L104.818,85.7033333 C104.976667,84.2753333 105.056,83.3233333 105.056,82.1333333 C105.056,77.4526667 103.072667,73.8826667 100.137333,68.1706667 C97.3606667,62.8553333 96.1706667,59.8406667 96.1706667,56.1913333 C96.1706667,55.0013333 96.25,54.0493333 96.3293333,53.256 L96.4086667,52.542 C96.726,49.448 97.44,48.02 99.106,48.02 C100.296,48.02 100.851333,48.8926667 100.851333,50.4793333 C100.851333,51.2726667 100.772,52.066 100.613333,53.732 L99.8993333,60.5546667 L107.356667,60.5546667 L107.991333,54.684 C108.15,52.9386667 108.308667,51.2726667 108.308667,49.924 C108.308667,44.212 105.611333,40.88 99.6613333,40.88 C93.4733333,40.88 89.7446667,44.688 88.872,52.7006667 L88.7133333,54.1286667 C88.634,54.8426667 88.5546667,55.7946667 88.5546667,57.064 C88.5546667,61.824 90.062,66.6633333 92.918,72.1373333 C96.1706667,78.3253333 97.2813333,79.9913333 97.2813333,83.72 C97.2813333,84.434 97.202,85.0686667 97.1226667,85.7826667 L96.964,87.29 C96.6466667,90.0666667 96.1706667,91.336 94.5046667,91.336 C93.2353333,91.336 92.5213333,90.4633333 92.5213333,88.8766667 C92.5213333,87.8453333 92.6006667,87.1313333 92.68,86.2586667 L93.4733333,79.436 L85.8573333,79.436 L85.1433333,85.2273333 C84.9846667,86.338 84.826,88.1626667 84.826,89.5113333 C84.826,94.9853333 88.0786667,98.476 94.346,98.476 Z" fill="#C8102E" fill-rule="nonzero" mask="url(#mask-2)"></path>
        </g>
    </g>
</svg>