<?xml version="1.0" encoding="UTF-8"?>
<svg width="150px" height="150px" viewBox="0 0 150 150" version="1.1" xmlns="http://www.w3.org/2000/svg" xmlns:xlink="http://www.w3.org/1999/xlink">
    <!-- Generator: Sketch 62 (91390) - https://sketch.com -->
    <title>star/LBN</title>
    <desc>Created with Sketch.</desc>
    <defs>
        <circle id="path-1" cx="70" cy="70" r="70"></circle>
    </defs>
    <g id="star/LBN" stroke="none" stroke-width="1" fill="none" fill-rule="evenodd">
        <rect id="Rectangle" x="0" y="0" width="150" height="150"></rect>
        <g id="LBN" transform="translate(5.000000, 5.000000)">
            <mask id="mask-2" fill="white">
                <use xlink:href="#path-1"></use>
            </mask>
            <use id="Circle-BG" fill="#FFFFFF" xlink:href="#path-1"></use>
            <g id="Circles" mask="url(#mask-2)">
                <g transform="translate(-2.800000, 0.000000)">
                    <path d="M72.8,9.33333333 C106.305275,9.33333333 133.466667,36.4947252 133.466667,70 C133.466667,103.505275 106.305275,130.666667 72.8,130.666667 C39.2947252,130.666667 12.1333333,103.505275 12.1333333,70 C12.1333333,36.4947252 39.2947252,9.33333333 72.8,9.33333333 Z M72.8,14 C41.872054,14 16.8,39.072054 16.8,70 C16.8,100.927946 41.872054,126 72.8,126 C103.727946,126 128.8,100.927946 128.8,70 C128.8,39.072054 103.727946,14 72.8,14 Z" id="Inner-Circle" fill="#1D428A" fill-rule="nonzero"></path>
                    <polygon id="#FFFFFF" fill="#FFFFFF" fill-rule="evenodd" points="0.796511748 90.7577059 145.064539 90.7577059 145.064539 52.0516499 0.796511748 52.0516499"></polygon>
                    <path d="M72.8,0 C111.459932,0 142.8,31.3400675 142.8,70 C142.8,108.659932 111.459932,140 72.8,140 C34.1400675,140 2.8,108.659932 2.8,70 C2.8,31.3400675 34.1400675,0 72.8,0 Z M72.8,4.66666667 C36.7173963,4.66666667 7.46666667,33.9173963 7.46666667,70 C7.46666667,106.082604 36.7173963,135.333333 72.8,135.333333 C108.882604,135.333333 138.133333,106.082604 138.133333,70 C138.133333,33.9173963 108.882604,4.66666667 72.8,4.66666667 Z" id="Outer-Circle" fill="#1D428A" fill-rule="nonzero"></path>
                </g>
            </g>
            <path d="M26.8409604,64.8470403 L28.0075772,69.245016 L32.4387821,68.0458879 L29.1738708,71.2447355 L32.4387821,74.4435831 L28.0075772,73.2444551 L26.8409604,77.6424307 L25.6743435,73.2444551 L21.2428155,74.4435831 L24.5077267,71.2447355 L21.2428155,68.0458879 L25.6743435,69.245016 L26.8409604,64.8470403 Z M12.445823,64.8470403 L13.6124398,69.245016 L18.0439679,68.0458879 L14.7790566,71.2447355 L18.0439679,74.4435831 L13.6124398,73.2444551 L12.445823,77.6424307 L11.2792062,73.2444551 L6.84800125,74.4435831 L10.1125893,71.2447355 L6.84800125,68.0458879 L11.2792062,69.245016 L12.445823,64.8470403 Z M113.740136,64.8470403 L114.906464,69.245016 L119.33812,68.0458879 L116.073437,71.2447355 L119.33812,74.4435831 L114.906464,73.2444551 L113.740136,77.6424307 L112.573486,73.2444551 L108.142153,74.4435831 L111.406835,71.2447355 L108.142153,68.0458879 L112.573486,69.245016 L113.740136,64.8470403 Z M128.135112,64.8470403 L129.301406,69.245016 L133.732934,68.0458879 L130.468023,71.2447355 L133.732934,74.4435831 L129.301406,73.2444551 L128.135112,77.6424307 L126.968495,73.2444551 L122.536967,74.4435831 L125.801879,71.2447355 L122.536967,68.0458879 L126.968495,69.245016 L128.135112,64.8470403 Z" id="stars" fill="#6CAEE5" mask="url(#mask-2)"></path>
            <path d="M68.166,41.356 C75.3540808,41.356 78.5408913,45.2803228 77.8022132,53.1289683 L77.7653333,53.494 L76.8926667,61.824 C76.4166667,66.1873333 74.6713333,68.726 72.212,70.0746667 C74.2945,71.5401296 75.6271286,74.0554126 75.2621317,78.3495571 L75.2266667,78.722 L74.2746667,87.2106667 C73.4156354,94.7857604 69.8660304,97.9021891 62.7934555,97.9977281 L62.454,98 L53.41,98 L59.4393333,41.356 L68.166,41.356 Z M94.346,41.356 L96.3293333,87.4486667 C96.488,76.2626667 96.964,58.8093333 97.9953333,49.6066667 L97.9953333,49.6066667 L98.868,41.356 L105.532,41.356 L99.582,98 L90.1413333,98 L88.5546667,53.1001333 L88.5181151,53.7568247 C87.9648781,63.6842092 87.1904783,75.1399275 86.492,81.7366667 L86.492,81.7366667 L84.7466667,98 L78.0826667,98 L84.0326667,41.356 L94.346,41.356 Z M50.2366667,41.356 L45.0006667,90.86 L51.268,90.86 L50.554,98 L36.6706667,98 L42.6206667,41.356 L50.2366667,41.356 Z M64.5166667,73.4066667 L63.644,73.4066667 L61.8193333,90.86 L63.168,90.86 C65.401,90.86 66.2887647,89.8884412 66.6292033,87.0748772 L66.6586667,86.814 L67.69,77.2146667 C68.0073333,74.438 67.1346667,73.4066667 64.5166667,73.4066667 Z M67.2933333,48.496 L66.262,48.496 L64.2786667,67.2186667 L65.6273333,67.2186667 C68.1726111,67.2186667 68.8432104,66.2438338 69.1701186,63.4193182 L69.1973333,63.1726667 L70.308,52.4626667 C70.546,49.8446667 69.832,48.496 67.2933333,48.496 Z" fill="#1D428A" fill-rule="nonzero" mask="url(#mask-2)"></path>
        </g>
    </g>
</svg>